<svg display="none" width="0" height="0" version="1.1" xmlns="http://www.w3.org/2000/svg" xmlns:xlink="http://www.w3.org/1999/xlink">
<defs>
<symbol id="icon-image" viewBox="0 0 1024 1024">
	<title>image</title>
	<path class="path1" d="M959.884 128c0.040 0.034 0.082 0.076 0.116 0.116v767.77c-0.034 0.040-0.076 0.082-0.116 0.116h-895.77c-0.040-0.034-0.082-0.076-0.114-0.116v-767.772c0.034-0.040 0.076-0.082 0.114-0.114h895.77zM960 64h-896c-35.2 0-64 28.8-64 64v768c0 35.2 28.8 64 64 64h896c35.2 0 64-28.8 64-64v-768c0-35.2-28.8-64-64-64v0z"></path>
	<path class="path2" d="M832 288c0 53.020-42.98 96-96 96s-96-42.98-96-96 42.98-96 96-96 96 42.98 96 96z"></path>
	<path class="path3" d="M896 832h-768v-128l224-384 256 320h64l224-192z"></path>
</symbol>
<symbol id="icon-undo" viewBox="0 0 1024 1024">
	<title>undo</title>
	<path class="path1" d="M512 64c-141.384 0-269.376 57.32-362.032 149.978l-149.968-149.978v384h384l-143.532-143.522c69.496-69.492 165.492-112.478 271.532-112.478 212.068 0 384 171.924 384 384 0 114.696-50.292 217.636-130.018 288l84.666 96c106.302-93.816 173.352-231.076 173.352-384 0-282.77-229.23-512-512-512z"></path>
</symbol>
<symbol id="icon-redo" viewBox="0 0 1024 1024">
	<title>redo</title>
	<path class="path1" d="M0 576c0 152.924 67.048 290.184 173.35 384l84.666-96c-79.726-70.364-130.016-173.304-130.016-288 0-212.076 171.93-384 384-384 106.042 0 202.038 42.986 271.53 112.478l-143.53 143.522h384v-384l-149.97 149.978c-92.654-92.658-220.644-149.978-362.030-149.978-282.77 0-512 229.23-512 512z"></path>
</symbol>
<symbol id="icon-list-numbered" viewBox="0 0 1024 1024">
	<title>list-numbered</title>
	<path class="path1" d="M384 832h640v128h-640zM384 448h640v128h-640zM384 64h640v128h-640zM192 0v256h-64v-192h-64v-64zM128 526v50h128v64h-192v-146l128-60v-50h-128v-64h192v146zM256 704v320h-192v-64h128v-64h-128v-64h128v-64h-128v-64z"></path>
</symbol>
<symbol id="icon-list" viewBox="0 0 1024 1024">
	<title>list</title>
	<path class="path1" d="M0 0h256v256h-256zM384 64h640v128h-640zM0 384h256v256h-256zM384 448h640v128h-640zM0 768h256v256h-256zM384 832h640v128h-640z"></path>
</symbol>
<symbol id="icon-link" viewBox="0 0 1024 1024">
	<title>link</title>
	<path class="path1" d="M440.236 635.766c-13.31 0-26.616-5.076-36.77-15.23-95.134-95.136-95.134-249.934 0-345.070l192-192c46.088-46.086 107.36-71.466 172.534-71.466s126.448 25.38 172.536 71.464c95.132 95.136 95.132 249.934 0 345.070l-87.766 87.766c-20.308 20.308-53.23 20.308-73.54 0-20.306-20.306-20.306-53.232 0-73.54l87.766-87.766c54.584-54.586 54.584-143.404 0-197.99-26.442-26.442-61.6-41.004-98.996-41.004s-72.552 14.562-98.996 41.006l-192 191.998c-54.586 54.586-54.586 143.406 0 197.992 20.308 20.306 20.306 53.232 0 73.54-10.15 10.152-23.462 15.23-36.768 15.23z"></path>
	<path class="path2" d="M256 1012c-65.176 0-126.45-25.38-172.534-71.464-95.134-95.136-95.134-249.934 0-345.070l87.764-87.764c20.308-20.306 53.234-20.306 73.54 0 20.308 20.306 20.308 53.232 0 73.54l-87.764 87.764c-54.586 54.586-54.586 143.406 0 197.992 26.44 26.44 61.598 41.002 98.994 41.002s72.552-14.562 98.998-41.006l192-191.998c54.584-54.586 54.584-143.406 0-197.992-20.308-20.308-20.306-53.232 0-73.54 20.306-20.306 53.232-20.306 73.54 0.002 95.132 95.134 95.132 249.932 0.002 345.068l-192.002 192c-46.090 46.088-107.364 71.466-172.538 71.466z"></path>
</symbol>
<symbol id="icon-bold" viewBox="0 0 1024 1024">
	<title>bold</title>
	<path class="path1" d="M707.88 484.652c37.498-44.542 60.12-102.008 60.12-164.652 0-141.16-114.842-256-256-256h-320v896h384c141.158 0 256-114.842 256-256 0-92.956-49.798-174.496-124.12-219.348zM384 192h101.5c55.968 0 101.5 57.42 101.5 128s-45.532 128-101.5 128h-101.5v-256zM543 832h-159v-256h159c58.45 0 106 57.42 106 128s-47.55 128-106 128z"></path>
</symbol>
<symbol id="icon-italic" viewBox="0 0 1024 1024">
	<title>italic</title>
	<path class="path1" d="M896 64v64h-128l-320 768h128v64h-448v-64h128l320-768h-128v-64z"></path>
</symbol>
<symbol id="icon-paragraph-left" viewBox="0 0 1024 1024">
	<title>paragraph-left</title>
	<path class="path1" d="M0 64h1024v128h-1024zM0 256h640v128h-640zM0 640h640v128h-640zM0 448h1024v128h-1024zM0 832h1024v128h-1024z"></path>
</symbol>
<symbol id="icon-paragraph-center" viewBox="0 0 1024 1024">
	<title>paragraph-center</title>
	<path class="path1" d="M0 64h1024v128h-1024zM192 256h640v128h-640zM192 640h640v128h-640zM0 448h1024v128h-1024zM0 832h1024v128h-1024z"></path>
</symbol>
<symbol id="icon-paragraph-right" viewBox="0 0 1024 1024">
	<title>paragraph-right</title>
	<path class="path1" d="M0 64h1024v128h-1024zM384 256h640v128h-640zM384 640h640v128h-640zM0 448h1024v128h-1024zM0 832h1024v128h-1024z"></path>
</symbol>
<symbol id="icon-embed2" viewBox="0 0 1280 1024">
	<title>embed2</title>
	<path class="path1" d="M832 736l96 96 320-320-320-320-96 96 224 224z"></path>
	<path class="path2" d="M448 288l-96-96-320 320 320 320 96-96-224-224z"></path>
	<path class="path3" d="M701.298 150.519l69.468 18.944-191.987 704.026-69.468-18.944 191.987-704.026z"></path>
</symbol>
<symbol id="icon-flattr" viewBox="0 0 1024 1024">
	<title>flattr</title>
	<path class="path1" d="M367.562 0c-243.358 0-367.562 140.162-367.562 401.856v0 549.034l238.39-238.628v-278.896c0-108.416 28.73-177.406 125.118-192.894v0c33.672-6.584 103.75-4.278 148.306-4.278v0 165.596c0 1.51 0.208 4.206 0.594 5.586v0c1.87 6.704 7.93 11.616 15.116 11.63v0c4.062 0.008 7.868-2.104 11.79-5.97v0l413.122-412.974-584.874-0.062zM785.61 311.746v278.89c0 108.414-28.736 177.414-125.116 192.894v0c-33.672 6.582-103.756 4.278-148.312 4.278v0-165.594c0-1.5-0.206-4.204-0.594-5.582v0c-1.864-6.712-7.922-11.622-15.112-11.63v0c-4.064-0.008-7.866 2.112-11.79 5.966v0l-413.124 412.966 584.874 0.066c243.354 0 367.564-140.168 367.564-401.852v0-549.028l-238.39 238.626z"></path>
</symbol>
</defs>
</svg>